<svg width="96" height="84" viewBox="0 0 96 84" fill="none" xmlns="http://www.w3.org/2000/svg">
<path d="M47.5334 29.4281V46.0948M47.5334 62.7614H47.5751M40.4084 8.01143L5.11675 66.9281C4.38911 68.1882 4.00411 69.6168 4.00003 71.0719C3.99596 72.527 4.37296 73.9578 5.09352 75.222C5.81409 76.4861 6.8531 77.5395 8.10719 78.2775C9.36129 79.0154 10.7867 79.4121 12.2417 79.4281H82.8251C84.2801 79.4121 85.7055 79.0154 86.9596 78.2775C88.2137 77.5395 89.2527 76.4861 89.9733 75.222C90.6939 73.9578 91.0709 72.527 91.0668 71.0719C91.0627 69.6168 90.6777 68.1882 89.9501 66.9281L54.6584 8.01143C53.9156 6.78688 52.8698 5.77443 51.6217 5.07178C50.3737 4.36913 48.9656 4 47.5334 4C46.1012 4 44.6931 4.36913 43.4451 5.07178C42.1971 5.77443 41.1512 6.78688 40.4084 8.01143Z" stroke="#1E1E1E" stroke-width="8" stroke-linecap="round" stroke-linejoin="round"/>
</svg>
