<svg width="54" height="54" viewBox="0 0 54 54" fill="none" xmlns="http://www.w3.org/2000/svg">
<path d="M30.8925 47.25C30.4969 47.9319 29.9291 48.498 29.246 48.8914C28.5629 49.2849 27.7884 49.492 27 49.492C26.2116 49.492 25.4371 49.2849 24.754 48.8914C24.0709 48.498 23.5031 47.9319 23.1075 47.25M40.5 18C40.5 14.4196 39.0777 10.9858 36.5459 8.45406C34.0142 5.92232 30.5804 4.5 27 4.5C23.4196 4.5 19.9858 5.92232 17.4541 8.45406C14.9223 10.9858 13.5 14.4196 13.5 18C13.5 33.75 6.75 38.25 6.75 38.25H47.25C47.25 38.25 40.5 33.75 40.5 18Z" stroke="#8E8E93" stroke-width="4" stroke-linecap="round" stroke-linejoin="round"/>
</svg>
