<svg width="28" height="28" viewBox="0 0 28 28" fill="none" xmlns="http://www.w3.org/2000/svg">
<path d="M14.0003 15.1667C14.6447 15.1667 15.167 14.6443 15.167 14C15.167 13.3557 14.6447 12.8333 14.0003 12.8333C13.356 12.8333 12.8337 13.3557 12.8337 14C12.8337 14.6443 13.356 15.1667 14.0003 15.1667Z" stroke="#1E1E1E" stroke-width="2" stroke-linecap="round" stroke-linejoin="round"/>
<path d="M22.167 15.1667C22.8113 15.1667 23.3337 14.6443 23.3337 14C23.3337 13.3557 22.8113 12.8333 22.167 12.8333C21.5227 12.8333 21.0003 13.3557 21.0003 14C21.0003 14.6443 21.5227 15.1667 22.167 15.1667Z" stroke="#1E1E1E" stroke-width="2" stroke-linecap="round" stroke-linejoin="round"/>
<path d="M5.83366 15.1667C6.47799 15.1667 7.00033 14.6443 7.00033 14C7.00033 13.3557 6.47799 12.8333 5.83366 12.8333C5.18933 12.8333 4.66699 13.3557 4.66699 14C4.66699 14.6443 5.18933 15.1667 5.83366 15.1667Z" stroke="#1E1E1E" stroke-width="2" stroke-linecap="round" stroke-linejoin="round"/>
</svg>
