<svg width="34" height="34" viewBox="0 0 34 34" fill="none" xmlns="http://www.w3.org/2000/svg">
<g clip-path="url(#clip0_101_990)">
<path d="M32.5835 5.66667V14.1667M32.5835 14.1667H24.0835M32.5835 14.1667L26.0243 7.99C24.0702 6.03463 21.5335 4.76735 18.7964 4.37912C16.0594 3.99089 13.2703 4.50275 10.8495 5.83757C8.42867 7.17239 6.50726 9.25785 5.37479 11.7797C4.24233 14.3015 3.96017 17.1231 4.57084 19.8192C5.18151 22.5154 6.65191 24.94 8.76047 26.7278C10.869 28.5155 13.5015 29.5696 16.2613 29.731C19.021 29.8924 21.7584 29.1526 24.061 27.6229C26.3637 26.0932 28.1068 23.8566 29.0277 21.25" stroke="#8E8E93" stroke-width="4" stroke-linecap="round" stroke-linejoin="round"/>
</g>
<defs>
<clipPath id="clip0_101_990">
<rect width="34" height="34" fill="white"/>
</clipPath>
</defs>
</svg>
