<svg width="100" height="100" viewBox="0 0 100 100" fill="none" xmlns="http://www.w3.org/2000/svg">
<path d="M50 87.5C39.5833 87.5 30.7292 83.8542 23.4375 76.5625C16.1458 69.2708 12.5 60.4167 12.5 50C12.5 39.5833 16.1458 30.7292 23.4375 23.4375C30.7292 16.1458 39.5833 12.5 50 12.5C50.9722 12.5 51.9271 12.5347 52.8646 12.6042C53.8021 12.6736 54.7222 12.7778 55.625 12.9167C52.7778 14.9306 50.5035 17.5521 48.8021 20.7812C47.1007 24.0104 46.25 27.5 46.25 31.25C46.25 37.5 48.4375 42.8125 52.8125 47.1875C57.1875 51.5625 62.5 53.75 68.75 53.75C72.5694 53.75 76.0764 52.8993 79.2708 51.1979C82.4653 49.4965 85.0694 47.2222 87.0833 44.375C87.2222 45.2778 87.3264 46.1979 87.3958 47.1354C87.4653 48.0729 87.5 49.0278 87.5 50C87.5 60.4167 83.8542 69.2708 76.5625 76.5625C69.2708 83.8542 60.4167 87.5 50 87.5ZM50 79.1667C56.1111 79.1667 61.5972 77.4826 66.4583 74.1146C71.3194 70.7465 74.8611 66.3542 77.0833 60.9375C75.6944 61.2847 74.3056 61.5625 72.9167 61.7708C71.5278 61.9792 70.1389 62.0833 68.75 62.0833C60.2083 62.0833 52.934 59.0799 46.9271 53.0729C40.9201 47.066 37.9167 39.7917 37.9167 31.25C37.9167 29.8611 38.0208 28.4722 38.2292 27.0833C38.4375 25.6944 38.7153 24.3056 39.0625 22.9167C33.6458 25.1389 29.2535 28.6806 25.8854 33.5417C22.5174 38.4028 20.8333 43.8889 20.8333 50C20.8333 58.0556 23.6806 64.9306 29.375 70.625C35.0694 76.3194 41.9444 79.1667 50 79.1667Z" fill="#1D1B20"/>
</svg>
