<?xml version="1.0" standalone="no"?>
<!DOCTYPE svg PUBLIC "-//W3C//DTD SVG 20010904//EN"
 "http://www.w3.org/TR/2001/REC-SVG-20010904/DTD/svg10.dtd">
<svg version="1.0" xmlns="http://www.w3.org/2000/svg"
 width="299.000000pt" height="299.000000pt" viewBox="0 0 299.000000 299.000000"
 preserveAspectRatio="xMidYMid meet">

<g transform="translate(0.000000,299.000000) scale(0.100000,-0.100000)"
fill="currentColor" stroke="none">
<path d="M1380 2790 c-335 -38 -635 -248 -780 -545 -79 -160 -95 -238 -94
-440 0 -191 14 -262 78 -399 98 -212 280 -394 499 -496 147 -69 227 -85 422
-84 156 0 177 2 260 28 98 30 260 110 315 156 l35 29 -108 1 c-88 0 -115 -4
-147 -20 -21 -11 -78 -32 -127 -46 -77 -24 -106 -27 -233 -28 -177 -1 -240 13
-395 90 -181 89 -312 219 -401 399 -63 127 -85 224 -86 365 -2 404 260 744
657 851 105 29 316 32 418 6 159 -40 325 -132 429 -238 178 -182 272 -441 249
-685 -7 -75 -6 -80 16 -97 30 -24 53 -68 54 -104 0 -27 1 -27 14 8 43 117 45
376 5 524 -86 316 -324 570 -632 674 -136 46 -310 66 -448 51z"/>
<path d="M1399 2477 c-140 -39 -223 -146 -223 -287 1 -201 185 -333 384 -274
78 23 162 109 185 189 32 109 3 219 -79 299 -69 67 -180 97 -267 73z"/>
<path d="M1960 1951 c-79 -26 -141 -82 -165 -150 -8 -24 -15 -76 -15 -117 l0
-74 -28 0 c-18 0 -38 -10 -53 -26 -24 -25 -24 -27 -24 -236 l0 -210 28 -24 28
-24 298 0 298 0 27 26 26 27 0 207 c0 195 -1 209 -21 234 -14 17 -30 26 -50
26 l-29 0 0 78 c-1 118 -44 198 -135 244 -43 22 -144 33 -185 19z m158 -108
c54 -40 72 -79 72 -159 l0 -74 -160 0 -160 0 0 74 c0 83 19 123 80 164 29 20
44 23 88 20 32 -3 64 -13 80 -25z m-33 -388 c30 -29 32 -73 6 -107 -13 -16
-21 -44 -23 -78 -6 -98 -70 -98 -76 0 -2 34 -10 62 -23 78 -41 53 -5 132 61
132 19 0 40 -9 55 -25z"/>
<path d="M1221 1830 c-188 -68 -300 -208 -309 -387 l-5 -83 37 -15 c89 -37
329 -65 564 -65 l112 0 0 143 c0 158 9 188 68 222 26 16 30 25 36 79 3 33 7
70 9 81 3 29 -86 48 -128 27 -18 -10 -67 -17 -120 -20 -74 -3 -100 0 -145 17
-65 25 -52 25 -119 1z"/>
<path d="M635 653 c-38 -10 -65 -36 -75 -73 -18 -67 20 -119 104 -141 51 -13
86 -35 86 -54 0 -47 -85 -62 -118 -20 -15 18 -29 25 -56 25 -41 0 -41 1 -22
-45 49 -116 267 -81 266 43 -1 54 -26 79 -110 110 -77 28 -94 48 -70 77 18 22
76 19 92 -4 7 -10 28 -20 46 -23 27 -4 32 -2 32 17 0 64 -90 109 -175 88z"/>
<path d="M880 468 l0 -188 35 0 35 0 0 188 0 187 -35 0 -35 0 0 -187z"/>
<path d="M1090 638 c-62 -31 -80 -71 -80 -173 0 -104 18 -142 83 -174 111 -55
217 15 217 144 l0 45 -74 0 c-65 0 -74 -2 -71 -17 2 -10 4 -24 4 -30 1 -8 15
-13 36 -13 41 0 45 -15 14 -54 -36 -46 -108 -32 -128 25 -23 67 -7 170 29 189
34 18 77 12 98 -15 15 -18 29 -25 55 -25 31 0 35 2 29 23 -10 40 -32 65 -73
81 -54 22 -87 20 -139 -6z"/>
<path d="M1370 468 l0 -188 35 0 34 0 3 117 3 118 70 -117 c69 -116 70 -117
108 -118 l37 0 0 184 0 184 -36 4 c-22 3 -38 0 -41 -8 -2 -6 -3 -60 -1 -118 2
-58 1 -106 -2 -106 -3 0 -35 53 -72 118 -66 114 -68 117 -103 117 l-35 0 0
-187z"/>
<path d="M1850 509 c0 -136 2 -148 23 -180 44 -66 157 -76 220 -19 l32 28 3
159 3 158 -35 0 -36 0 0 -135 c0 -156 -9 -180 -63 -180 -66 0 -77 27 -77 187
l0 128 -35 0 -35 0 0 -146z"/>
<path d="M2200 468 l0 -188 35 0 35 0 0 64 0 63 62 6 c72 6 107 29 127 81 11
30 12 44 2 76 -18 60 -47 74 -163 80 l-98 5 0 -187z m180 102 c24 -24 25 -38
4 -68 -12 -18 -25 -22 -65 -22 l-49 0 0 48 c0 27 3 52 7 55 15 15 83 7 103
-13z"/>
</g>
</svg>
