<svg width="100" height="100" viewBox="0 0 100 100" fill="none" xmlns="http://www.w3.org/2000/svg">
<path d="M50.0003 62.4998C53.4725 62.4998 56.4239 61.2846 58.8545 58.854C61.285 56.4234 62.5003 53.4721 62.5003 49.9998C62.5003 46.5276 61.285 43.5762 58.8545 41.1457C56.4239 38.7151 53.4725 37.4998 50.0003 37.4998C46.5281 37.4998 43.5767 38.7151 41.1462 41.1457C38.7156 43.5762 37.5003 46.5276 37.5003 49.9998C37.5003 53.4721 38.7156 56.4234 41.1462 58.854C43.5767 61.2846 46.5281 62.4998 50.0003 62.4998ZM50.0003 70.8332C44.2364 70.8332 39.3232 68.8019 35.2607 64.7394C31.1982 60.6769 29.167 55.7637 29.167 49.9998C29.167 44.2359 31.1982 39.3228 35.2607 35.2603C39.3232 31.1978 44.2364 29.1665 50.0003 29.1665C55.7642 29.1665 60.6774 31.1978 64.7399 35.2603C68.8024 39.3228 70.8337 44.2359 70.8337 49.9998C70.8337 55.7637 68.8024 60.6769 64.7399 64.7394C60.6774 68.8019 55.7642 70.8332 50.0003 70.8332ZM20.8337 54.1665H4.16699V45.8332H20.8337V54.1665ZM95.8337 54.1665H79.167V45.8332H95.8337V54.1665ZM45.8337 20.8332V4.1665H54.167V20.8332H45.8337ZM45.8337 95.8332V79.1665H54.167V95.8332H45.8337ZM26.667 32.2915L16.1462 22.1873L22.0837 16.0415L32.0837 26.4582L26.667 32.2915ZM77.917 83.9582L67.8128 73.4373L73.3337 67.7082L83.8545 77.8123L77.917 83.9582ZM67.7087 26.6665L77.8128 16.1457L83.9587 22.0832L73.542 32.0832L67.7087 26.6665ZM16.042 77.9165L26.5628 67.8123L32.292 73.3332L22.1878 83.854L16.042 77.9165Z" fill="#FFFFFF"/>
</svg>
