<svg width="80" height="75" viewBox="0 0 80 75" fill="none" xmlns="http://www.w3.org/2000/svg">
<mask id="mask0_153_283" style="mask-type:luminance" maskUnits="userSpaceOnUse" x="0" y="0" width="80" height="75">
<path d="M16.647 24.0957H13.653C13.2923 24.1679 13.0037 24.4745 13.0037 24.8352V41.5723C13.0579 41.7166 13.13 41.8429 13.2202 41.933C13.3284 42.0413 13.4727 42.0954 13.617 42.1314H13.7793H25.1779H25.3221C25.6829 42.0593 25.9714 41.7527 25.9714 41.392V38.5964C25.8993 38.2538 25.5746 37.9832 25.1779 37.9832H17.4225V24.6729C17.3504 24.3302 17.0257 24.0596 16.6289 24.0596L16.647 24.0957ZM31.9593 24.0957H28.7309C28.3341 24.1679 28.0275 24.4745 28.0275 24.8352V41.5543C28.1177 41.897 28.4604 42.1675 28.8752 42.1675H32.1036C32.5004 42.0954 32.807 41.7888 32.807 41.428V24.7089C32.7168 24.3663 32.3741 24.0957 31.9593 24.0957ZM39.1014 24.0957H36.3059H36.1616C35.8009 24.1498 35.5304 24.4564 35.5304 24.8171V41.5363C35.6025 41.8789 35.9271 42.1495 36.3059 42.1495H39.2096C39.5704 42.0773 39.8409 41.7707 39.8409 41.41V31.5625L47.7405 41.8429L47.8307 41.9511L47.9389 42.0412H47.957L47.975 42.0773C47.975 42.0773 47.975 42.0773 47.993 42.0773H48.0111C48.0111 42.0773 48.0291 42.0773 48.0471 42.0773C48.0471 42.0773 48.0471 42.0773 48.0652 42.0773C48.0832 42.0773 48.1012 42.0773 48.1193 42.0773C48.1734 42.0773 48.2455 42.0954 48.3177 42.0954H51.2214C51.5821 42.0232 51.8527 41.7166 51.8527 41.3559V24.6368C51.7805 24.2941 51.4559 24.0236 51.0771 24.0236H48.1734C47.8127 24.0957 47.5421 24.4023 47.5421 24.763V34.6105L39.6425 24.3482L39.6064 24.3121L39.5704 24.2761L39.5162 24.222C39.5162 24.222 39.4802 24.1859 39.4802 24.1679H39.4621C39.4621 24.1679 39.4441 24.1318 39.4261 24.1318H39.408L39.39 24.1138H39.372C39.372 24.1138 39.372 24.0957 39.3539 24.0957H39.3179C39.3179 24.0957 39.3179 24.0777 39.2998 24.0777C39.2998 24.0777 39.2637 24.0777 39.2457 24.0777H39.2096H39.1736H39.1375H39.1195H39.0654L39.1014 24.0957ZM66.155 24.0957H54.6121C54.4679 24.1318 54.3236 24.2039 54.2154 24.3121C54.0711 24.4564 53.9989 24.6368 53.9989 24.8352V41.5723C54.053 41.7166 54.1252 41.8429 54.2154 41.933C54.3596 42.0773 54.558 42.1675 54.7745 42.1675H66.2993C66.66 42.0954 66.9486 41.7888 66.9486 41.428V38.6325C66.8764 38.2898 66.5518 38.0193 66.155 38.0193H58.4177V35.2238H66.2993C66.66 35.1516 66.9486 34.845 66.9486 34.4843V31.6888C66.8764 31.3461 66.5518 31.0755 66.155 31.0755H58.4177V28.28H66.2993C66.66 28.2079 66.9486 27.9013 66.9486 27.5405V24.745C66.8764 24.4023 66.5518 24.1318 66.155 24.1318V24.0957ZM39.7146 0C61.592 0 79.3932 14.1941 79.3932 31.6346C79.3932 38.6145 76.6337 44.9089 70.8804 51.0952C62.5659 60.5098 43.935 71.9805 39.6966 73.73C35.4582 75.4795 36.0895 72.6118 36.2518 71.6198C36.36 71.0246 36.8109 68.2832 36.8109 68.2832C36.9371 67.2912 37.0814 65.7402 36.6846 64.7663C36.2337 63.6841 34.4843 63.125 33.1857 62.8364C14.122 60.3655 0 47.2536 0 31.6166C0.0360714 14.1941 17.8373 0 39.7146 0Z" fill="white"/>
</mask>
<g mask="url(#mask0_153_283)">
<mask id="mask1_153_283" style="mask-type:luminance" maskUnits="userSpaceOnUse" x="-860" y="-2658" width="2838" height="7808">
<path d="M1977.22 -2657.62H-859.384V5149.77H1977.22V-2657.62Z" fill="white"/>
</mask>
<g mask="url(#mask1_153_283)">
<path d="M87.8343 -8.44092H-8.4043V82.7296H87.8343V-8.44092Z" fill="white"/>
</g>
</g>
</svg>
