<svg width="300" height="80" viewBox="0 0 300 80" fill="none" xmlns="http://www.w3.org/2000/svg">
<path d="M30 55C38.2843 55 45 48.2843 45 40C45 31.7157 38.2843 25 30 25C21.7157 25 15 31.7157 15 40C15 48.2843 21.7157 55 30 55Z" stroke="url(#paint0_linear_17_278)" stroke-width="4"/>
<path d="M50 55C58.2843 55 65 48.2843 65 40C65 31.7157 58.2843 25 50 25C41.7157 25 35 31.7157 35 40C35 48.2843 41.7157 55 50 55Z" stroke="#5DC3EF" stroke-width="4"/>
<path d="M84.0455 62L84.0455 15.4545L93.8864 15.4545L93.8864 53.8864L113.841 53.8864V62L84.0455 62ZM120.176 62L120.176 27.0909H129.858V62L120.176 62ZM125.04 22.5909C123.6 22.5909 122.366 22.1136 121.335 21.1591C120.32 20.1894 119.812 19.0303 119.812 17.6818C119.812 16.3485 120.32 15.2045 121.335 14.25C122.366 13.2803 123.6 12.7955 125.04 12.7955C126.479 12.7955 127.706 13.2803 128.722 14.25C129.752 15.2045 130.267 16.3485 130.267 17.6818C130.267 19.0303 129.752 20.1894 128.722 21.1591C127.706 22.1136 126.479 22.5909 125.04 22.5909ZM147.295 41.8182V62H137.614V27.0909H146.841V33.25H147.25C148.023 31.2197 149.318 29.6136 151.136 28.4318C152.955 27.2348 155.159 26.6364 157.75 26.6364C160.174 26.6364 162.288 27.1667 164.091 28.2273C165.894 29.2879 167.295 30.803 168.295 32.7727C169.295 34.7273 169.795 37.0606 169.795 39.7727V62H160.114V41.5C160.129 39.3636 159.583 37.697 158.477 36.5C157.371 35.2879 155.848 34.6818 153.909 34.6818C152.606 34.6818 151.455 34.9621 150.455 35.5227C149.47 36.0833 148.697 36.9015 148.136 37.9773C147.591 39.0379 147.311 40.3182 147.295 41.8182ZM186.199 51.9545L186.222 40.3409H187.631L198.812 27.0909L209.926 27.0909L194.903 44.6364H192.608L186.199 51.9545ZM177.426 62V15.4545L187.108 15.4545V62H177.426ZM199.244 62L188.972 46.7955L195.426 39.9545L210.585 62H199.244ZM221.216 75.0909C219.989 75.0909 218.837 74.9924 217.761 74.7955C216.701 74.6136 215.822 74.3788 215.125 74.0909L217.307 66.8636C218.443 67.2121 219.466 67.4015 220.375 67.4318C221.299 67.4621 222.095 67.25 222.761 66.7955C223.443 66.3409 223.996 65.5682 224.42 64.4773L224.989 63L212.466 27.0909L222.648 27.0909L229.875 52.7273H230.239L237.534 27.0909H247.784L234.216 65.7727C233.564 67.6515 232.678 69.2879 231.557 70.6818C230.451 72.0909 229.049 73.1742 227.352 73.9318C225.655 74.7045 223.61 75.0909 221.216 75.0909Z" fill="url(#paint1_linear_17_278)"/>
<defs>
<linearGradient id="paint0_linear_17_278" x1="15" y1="25" x2="3015" y2="25" gradientUnits="userSpaceOnUse">
<stop stop-color="#4A90E2"/>
<stop offset="1" stop-color="#50E3C2"/>
</linearGradient>
<linearGradient id="paint1_linear_17_278" x1="80" y1="38.5" x2="249" y2="38.5" gradientUnits="userSpaceOnUse">
<stop stop-color="#4A90E2"/>
<stop offset="1" stop-color="#50E3C2"/>
</linearGradient>
</defs>
</svg>


