<?xml version="1.0" standalone="no"?>
<!DOCTYPE svg PUBLIC "-//W3C//DTD SVG 20010904//EN"
 "http://www.w3.org/TR/2001/REC-SVG-20010904/DTD/svg10.dtd">
<svg version="1.0" xmlns="http://www.w3.org/2000/svg"
 width="500.000000pt" height="500.000000pt" viewBox="0 0 500.000000 500.000000"
 preserveAspectRatio="xMidYMid meet">

<g transform="translate(0.000000,500.000000) scale(0.100000,-0.100000)"
fill="#000000" stroke="none">
<path d="M2124 4351 c-49 -22 -101 -82 -114 -132 -10 -35 -12 -36 -67 -42
-206 -21 -249 -283 -61 -362 55 -22 611 -22 666 0 189 79 147 338 -59 361 -58
6 -59 7 -70 45 -36 119 -179 183 -295 130z m141 -146 c17 -16 25 -35 25 -57 0
-19 7 -44 16 -57 24 -34 91 -61 151 -61 42 0 54 -4 63 -20 15 -28 -3 -57 -37
-61 -16 -2 -149 -2 -297 1 -242 4 -270 7 -280 23 -20 32 4 51 75 58 103 9 159
53 159 124 0 33 42 75 75 75 14 0 37 -11 50 -25z"/>
<path d="M1125 3999 c-49 -25 -96 -76 -127 -137 l-23 -47 0 -1300 0 -1300 23
-46 c26 -52 69 -97 127 -131 l40 -23 687 -3 688 -3 -19 43 c-10 24 -24 55 -30
71 l-11 27 -625 0 c-679 0 -669 -1 -713 55 l-22 28 0 1281 0 1281 25 38 c14
20 36 39 48 42 12 3 96 4 187 3 l165 -3 3 -25 c11 -90 89 -193 182 -242 45
-23 47 -23 473 -26 l429 -3 53 25 c99 45 169 126 190 220 l12 51 154 0 c134 0
159 -3 193 -20 83 -42 77 28 79 -861 l2 -789 60 -7 c33 -5 66 -6 73 -3 16 6
18 1511 2 1596 -12 64 -49 121 -108 166 -70 53 -101 58 -372 58 -213 0 -245
-2 -241 -15 2 -8 5 -46 8 -85 5 -81 -10 -113 -73 -161 l-37 -29 -386 -3 c-212
-2 -401 0 -419 3 -38 7 -96 55 -119 98 -12 23 -14 48 -10 96 3 37 9 74 12 84
7 16 -10 17 -267 17 -256 0 -276 -1 -313 -21z"/>
<path d="M1533 3175 c-38 -26 -37 -92 1 -117 6 -4 312 -8 681 -8 369 0 675 4
681 8 15 10 34 47 34 67 0 9 -11 27 -25 40 l-24 25 -663 0 c-569 0 -667 -2
-685 -15z"/>
<path d="M1529 2642 c-28 -23 -30 -73 -4 -102 18 -20 29 -20 691 -20 l673 0
20 26 c27 35 26 59 -4 89 l-24 25 -664 0 c-631 0 -666 -1 -688 -18z"/>
<path d="M1529 2112 c-15 -13 -22 -30 -22 -52 0 -22 7 -39 22 -52 22 -17 55
-18 611 -18 l588 0 29 24 c15 13 54 40 87 61 43 28 55 39 45 46 -8 5 -312 9
-675 9 -628 0 -663 -1 -685 -18z"/>
<path d="M3175 2110 c-235 -31 -450 -188 -559 -406 -59 -119 -70 -173 -71
-329 0 -119 3 -150 23 -207 47 -143 93 -220 191 -321 188 -197 500 -268 766
-175 119 41 195 89 283 177 143 141 215 318 215 526 0 209 -67 369 -218 521
-76 77 -105 98 -185 138 -52 25 -120 53 -150 60 -72 18 -219 26 -295 16z m234
-146 c219 -53 401 -227 457 -436 19 -71 18 -235 -2 -310 -47 -183 -215 -358
-402 -420 -191 -63 -423 -12 -578 126 -321 287 -247 806 142 993 123 59 264
76 383 47z"/>
<path d="M3373 1468 l-213 -212 -98 97 c-82 80 -105 97 -130 97 -34 0 -72 -38
-72 -73 0 -32 268 -297 300 -297 18 0 85 61 272 247 223 223 248 251 248 280
0 40 -30 73 -67 73 -22 0 -68 -41 -240 -212z"/>
<path d="M1520 1573 c-25 -32 -20 -69 12 -96 19 -16 53 -17 472 -15 l451 3 11
50 c22 95 75 85 -455 85 l-470 0 -21 -27z"/>
</g>
</svg>
