<svg width="60" height="70" viewBox="0 0 60 70" fill="none" xmlns="http://www.w3.org/2000/svg">
<path d="M17.5 26.2501V20.4167H52.5V26.2501H17.5ZM17.5 37.9167V32.0834H52.5V37.9167H17.5ZM17.5 49.5834V43.7501H52.5V49.5834H17.5ZM10 26.2501C9.29167 26.2501 8.69792 25.9706 8.21875 25.4115C7.73958 24.8525 7.5 24.1598 7.5 23.3334C7.5 22.507 7.73958 21.8143 8.21875 21.2553C8.69792 20.6963 9.29167 20.4167 10 20.4167C10.7083 20.4167 11.3021 20.6963 11.7812 21.2553C12.2604 21.8143 12.5 22.507 12.5 23.3334C12.5 24.1598 12.2604 24.8525 11.7812 25.4115C11.3021 25.9706 10.7083 26.2501 10 26.2501ZM10 37.9167C9.29167 37.9167 8.69792 37.6372 8.21875 37.0782C7.73958 36.5192 7.5 35.8265 7.5 35.0001C7.5 34.1737 7.73958 33.481 8.21875 32.922C8.69792 32.3629 9.29167 32.0834 10 32.0834C10.7083 32.0834 11.3021 32.3629 11.7812 32.922C12.2604 33.481 12.5 34.1737 12.5 35.0001C12.5 35.8265 12.2604 36.5192 11.7812 37.0782C11.3021 37.6372 10.7083 37.9167 10 37.9167ZM10 49.5834C9.29167 49.5834 8.69792 49.3039 8.21875 48.7449C7.73958 48.1858 7.5 47.4931 7.5 46.6667C7.5 45.8404 7.73958 45.1476 8.21875 44.5886C8.69792 44.0296 9.29167 43.7501 10 43.7501C10.7083 43.7501 11.3021 44.0296 11.7812 44.5886C12.2604 45.1476 12.5 45.8404 12.5 46.6667C12.5 47.4931 12.2604 48.1858 11.7812 48.7449C11.3021 49.3039 10.7083 49.5834 10 49.5834Z" fill="#8E8E93"/>
</svg>
