<svg width="48" height="48" viewBox="0 0 48 48" fill="none" xmlns="http://www.w3.org/2000/svg">
<g clip-path="url(#clip0_261_834)">
<path d="M36.6667 39L26.1667 28.5C25.3333 29.1667 24.375 29.6944 23.2917 30.0833C22.2083 30.4722 21.0556 30.6667 19.8333 30.6667C16.8056 30.6667 14.2431 29.6181 12.1458 27.5208C10.0486 25.4236 9 22.8611 9 19.8333C9 16.8056 10.0486 14.2431 12.1458 12.1458C14.2431 10.0486 16.8056 9 19.8333 9C22.8611 9 25.4236 10.0486 27.5208 12.1458C29.6181 14.2431 30.6667 16.8056 30.6667 19.8333C30.6667 21.0556 30.4722 22.2083 30.0833 23.2917C29.6944 24.375 29.1667 25.3333 28.5 26.1667L39 36.6667L36.6667 39ZM19.8333 27.3333C21.9167 27.3333 23.6875 26.6042 25.1458 25.1458C26.6042 23.6875 27.3333 21.9167 27.3333 19.8333C27.3333 17.75 26.6042 15.9792 25.1458 14.5208C23.6875 13.0625 21.9167 12.3333 19.8333 12.3333C17.75 12.3333 15.9792 13.0625 14.5208 14.5208C13.0625 15.9792 12.3333 17.75 12.3333 19.8333C12.3333 21.9167 13.0625 23.6875 14.5208 25.1458C15.9792 26.6042 17.75 27.3333 19.8333 27.3333Z" fill="#8E8E93"/>
</g>
<defs>
<clipPath id="clip0_261_834">
<rect x="4" y="4" width="40" height="40" rx="20" fill="white"/>
</clipPath>
</defs>
</svg>
