<svg width="193" height="192" viewBox="0 0 193 192" fill="none" xmlns="http://www.w3.org/2000/svg">
<rect width="193" height="192" rx="96" fill="#EAEDEF"/>
<path d="M134.5 94.3438C134.5 116.436 116.592 134.344 94.5 134.344C72.408 134.344 54.5 116.436 54.5 94.3438C54.5 72.2518 72.408 54.3438 94.5 54.3438M122.5 54.3438V66.3438M122.5 66.3438V78.3438M122.5 66.3438H134.5M122.5 66.3438H110.5" stroke="#AFAFAF" stroke-width="8" stroke-linecap="round" stroke-linejoin="round"/>
<path fill-rule="evenodd" clip-rule="evenodd" d="M74.4091 72.2918C76.1915 71.0348 78.3161 70.3536 80.4971 70.3398C82.1371 70.3398 84.5091 70.7998 86.5851 72.2918C88.8651 73.9318 90.4971 76.6358 90.4971 80.3398C90.4971 84.0438 88.8651 86.7438 86.5851 88.3838C84.8032 89.6423 82.6786 90.3249 80.4971 90.3398C78.8571 90.3398 76.4851 89.8798 74.4091 88.3838C72.1291 86.7438 70.4971 84.0478 70.4971 80.3398C70.4971 76.6358 72.1291 73.9358 74.4091 72.2918ZM111.821 134.116C120.941 131.048 138.497 118.912 138.497 94.3398C138.497 93.279 138.076 92.2616 137.326 91.5114C136.575 90.7613 135.558 90.3398 134.497 90.3398H130.497C111.285 90.3398 97.6571 94.6278 88.2771 100.828C96.4171 103.476 104.581 108.108 110.797 115.832C111.462 116.659 111.772 117.717 111.657 118.773C111.542 119.828 111.013 120.795 110.185 121.46C109.358 122.125 108.3 122.434 107.244 122.319C106.189 122.205 105.222 121.675 104.557 120.848C98.4971 113.312 89.9571 109.2 81.3731 107.208C76.7402 106.151 72.0011 105.63 67.2491 105.656C64.1131 105.668 61.3411 105.92 59.1531 106.284C58.8467 106.336 58.5353 106.352 58.2251 106.332L57.8411 106.396C57.2482 106.495 56.6852 106.726 56.194 107.073C55.7028 107.419 55.2961 107.872 55.004 108.398C54.7119 108.923 54.5419 109.507 54.5068 110.108C54.4717 110.708 54.5723 111.308 54.8011 111.864C57.4091 118.2 63.3411 126.756 72.8411 132.252C82.5211 137.848 95.5771 140.084 111.821 134.116Z" fill="#AFAFAF"/>
</svg>
