<svg width="100" height="100" viewBox="0 0 100 100" fill="none" xmlns="http://www.w3.org/2000/svg">
<path d="M38.5417 91.6668L36.875 78.3335C35.9722 77.9863 35.1215 77.5696 34.3229 77.0835C33.5243 76.5974 32.7431 76.0766 31.9792 75.521L19.5833 80.7293L8.125 60.9377L18.8542 52.8127C18.7847 52.3266 18.75 51.8578 18.75 51.4064V48.5939C18.75 48.1425 18.7847 47.6738 18.8542 47.1877L8.125 39.0627L19.5833 19.271L31.9792 24.4793C32.7431 23.9238 33.5417 23.4029 34.375 22.9168C35.2083 22.4307 36.0417 22.0141 36.875 21.6668L38.5417 8.3335H61.4583L63.125 21.6668C64.0278 22.0141 64.8785 22.4307 65.6771 22.9168C66.4757 23.4029 67.2569 23.9238 68.0208 24.4793L80.4167 19.271L91.875 39.0627L81.1458 47.1877C81.2153 47.6738 81.25 48.1425 81.25 48.5939V51.4064C81.25 51.8578 81.1806 52.3266 81.0417 52.8127L91.7708 60.9377L80.3125 80.7293L68.0208 75.521C67.2569 76.0766 66.4583 76.5974 65.625 77.0835C64.7917 77.5696 63.9583 77.9863 63.125 78.3335L61.4583 91.6668H38.5417ZM45.8333 83.3335H54.0625L55.5208 72.2918C57.6736 71.7363 59.6701 70.9203 61.5104 69.8439C63.3507 68.7675 65.0347 67.4654 66.5625 65.9377L76.875 70.2085L80.9375 63.1252L71.9792 56.3543C72.3264 55.3821 72.5694 54.3578 72.7083 53.2814C72.8472 52.205 72.9167 51.1113 72.9167 50.0002C72.9167 48.8891 72.8472 47.7953 72.7083 46.7189C72.5694 45.6425 72.3264 44.6182 71.9792 43.646L80.9375 36.8752L76.875 29.7918L66.5625 34.1668C65.0347 32.5696 63.3507 31.2328 61.5104 30.1564C59.6701 29.08 57.6736 28.2641 55.5208 27.7085L54.1667 16.6668H45.9375L44.4792 27.7085C42.3264 28.2641 40.3299 29.08 38.4896 30.1564C36.6493 31.2328 34.9653 32.5349 33.4375 34.0627L23.125 29.7918L19.0625 36.8752L28.0208 43.5418C27.6736 44.5835 27.4306 45.6252 27.2917 46.6668C27.1528 47.7085 27.0833 48.8196 27.0833 50.0002C27.0833 51.1113 27.1528 52.1877 27.2917 53.2293C27.4306 54.271 27.6736 55.3127 28.0208 56.3543L19.0625 63.1252L23.125 70.2085L33.4375 65.8335C34.9653 67.4307 36.6493 68.7675 38.4896 69.8439C40.3299 70.9203 42.3264 71.7363 44.4792 72.2918L45.8333 83.3335ZM50.2083 64.5835C54.2361 64.5835 57.6736 63.1599 60.5208 60.3127C63.3681 57.4654 64.7917 54.0279 64.7917 50.0002C64.7917 45.9724 63.3681 42.5349 60.5208 39.6877C57.6736 36.8404 54.2361 35.4168 50.2083 35.4168C46.1111 35.4168 42.6562 36.8404 39.8437 39.6877C37.0312 42.5349 35.625 45.9724 35.625 50.0002C35.625 54.0279 37.0312 57.4654 39.8437 60.3127C42.6562 63.1599 46.1111 64.5835 50.2083 64.5835Z" fill="#FEF7FF"/>
</svg>
