<?xml version="1.0" encoding="UTF-8"?>
<svg version="1.1" xmlns="http://www.w3.org/2000/svg" width="330" height="305">
<path d="M0 0 C6.65294725 4.86264735 10.48296846 13.59110279 14.40969849 20.59967041 C16.1613139 23.7255798 17.93144685 26.84101174 19.69799805 29.95849609 C20.23329384 30.90509598 20.23329384 30.90509598 20.77940369 31.87081909 C24.12809692 37.78765687 27.54629438 43.6627751 30.9831543 49.52880859 C37.7135984 61.0320275 44.3772156 72.57304908 51.02954102 84.12158203 C54.15745578 89.55040802 57.28923878 94.97700141 60.4206543 100.40380859 C61.67067309 102.57046442 62.92067308 104.73713109 64.1706543 106.90380859 C65.0987793 108.51255859 65.0987793 108.51255859 66.0456543 110.15380859 C101.6706543 171.90380859 101.6706543 171.90380859 103.546875 175.15600586 C104.79271199 177.31540254 106.03864248 179.47474528 107.28466797 181.6340332 C110.47414383 187.16148456 113.66182315 192.68995981 116.84643555 198.22021484 C118.14191942 200.46896406 119.43749111 202.71766269 120.7331543 204.96630859 C121.35464355 206.04533447 121.97613281 207.12436035 122.61645508 208.23608398 C126.70672067 215.32780413 130.83304307 222.39704092 135.04101562 229.41967773 C138.90556172 235.91833882 139.50990418 240.93640553 138.9206543 248.40380859 C136.92680549 254.07053677 133.44110751 257.75665721 128.44064331 261.02453041 C123.54215364 262.94396252 119.12996093 262.818432 113.91333008 262.78475952 C112.80171068 262.78943949 111.69009129 262.79411947 110.54478645 262.79894125 C106.81839203 262.81091119 103.09236399 262.80142587 99.3659668 262.79199219 C96.69503708 262.796057 94.02413265 262.8012898 91.35321045 262.80792236 C84.85083923 262.82125786 78.34857193 262.8183828 71.84619665 262.80968444 C66.56129447 262.80290757 61.2764214 262.80199119 55.99151611 262.80525589 C55.23916313 262.80571559 54.48681015 262.80617529 53.7116586 262.80664892 C52.18323818 262.8076081 50.65481777 262.80858074 49.12639737 262.80956669 C34.79648573 262.81812005 20.46663168 262.80828732 6.13672948 262.79216559 C-6.15732963 262.77876245 -18.45130375 262.78109056 -30.74536133 262.79492188 C-45.02421276 262.81097866 -59.30301374 262.81729608 -73.58187294 262.80808508 C-75.10465113 262.80712944 -76.62742932 262.80618633 -78.15020752 262.80525589 C-78.89943131 262.80479306 -79.64865511 262.80433024 -80.42058265 262.80385339 C-85.69875607 262.80126379 -90.97689746 262.80563384 -96.25506592 262.81269455 C-102.68795135 262.82111084 -109.12072697 262.81882675 -115.55359983 262.80285232 C-118.83538872 262.79497124 -122.11695684 262.79349164 -125.39875031 262.80179977 C-128.9566909 262.80997755 -132.514114 262.79973849 -136.07202148 262.78475952 C-137.62717374 262.79479777 -137.62717374 262.79479777 -139.21374321 262.80503881 C-146.10723484 262.74861129 -150.41442166 261.69688277 -155.7668457 257.09130859 C-160.38178475 251.72800105 -161.4217176 247.48858133 -161.6730957 240.57568359 C-160.04891335 231.89913049 -154.14226453 223.90967726 -149.7043457 216.40380859 C-148.45507049 214.27654335 -147.20639295 212.14892702 -145.95825195 210.02099609 C-145.31774902 208.93012695 -144.67724609 207.83925781 -144.01733398 206.71533203 C-140.86792357 201.3337998 -137.75415263 195.93185836 -134.6418457 190.52880859 C-133.70912842 188.91039062 -133.70912842 188.91039062 -132.75756836 187.25927734 C-131.49502048 185.06829923 -130.23265082 182.8772184 -128.97045898 180.68603516 C-125.84254422 175.25720917 -122.71076122 169.83061578 -119.5793457 164.40380859 C-118.32932691 162.23715277 -117.07932692 160.0704861 -115.8293457 157.90380859 C-98.3293457 127.57047526 -80.8293457 97.23714193 -63.3293457 66.90380859 C-62.71019287 65.8305835 -62.09104004 64.7573584 -61.453125 63.65161133 C-60.20728801 61.49221465 -58.96135752 59.3328719 -57.71533203 57.17358398 C-53.8730533 50.51480688 -50.03446928 43.85391567 -46.19824219 37.19165039 C-44.31321952 33.92175202 -42.42326825 30.6547452 -40.5324707 27.38818359 C-38.37549646 23.66034361 -36.23895356 19.92250499 -34.1262207 16.16943359 C-33.25648809 14.64335827 -32.38670091 13.11731404 -31.5168457 11.59130859 C-31.147771 10.92220459 -30.77869629 10.25310059 -30.3984375 9.5637207 C-27.41791113 4.37780827 -23.98765713 1.1003236 -18.8293457 -1.90869141 C-12.32157546 -3.53563397 -5.86282055 -3.51315418 0 0 Z " fill="#FDCA00" transform="translate(176.079345703125,22.59619140625)"/>
<path d="M0 0 C6.65294725 4.86264735 10.48296846 13.59110279 14.40969849 20.59967041 C16.1613139 23.7255798 17.93144685 26.84101174 19.69799805 29.95849609 C20.23329384 30.90509598 20.23329384 30.90509598 20.77940369 31.87081909 C24.12809692 37.78765687 27.54629438 43.6627751 30.9831543 49.52880859 C37.7135984 61.0320275 44.3772156 72.57304908 51.02954102 84.12158203 C54.15745578 89.55040802 57.28923878 94.97700141 60.4206543 100.40380859 C61.67067309 102.57046442 62.92067308 104.73713109 64.1706543 106.90380859 C65.0987793 108.51255859 65.0987793 108.51255859 66.0456543 110.15380859 C101.6706543 171.90380859 101.6706543 171.90380859 103.546875 175.15600586 C104.79271199 177.31540254 106.03864248 179.47474528 107.28466797 181.6340332 C110.47414383 187.16148456 113.66182315 192.68995981 116.84643555 198.22021484 C118.14191942 200.46896406 119.43749111 202.71766269 120.7331543 204.96630859 C121.35464355 206.04533447 121.97613281 207.12436035 122.61645508 208.23608398 C126.70672067 215.32780413 130.83304307 222.39704092 135.04101562 229.41967773 C138.90556172 235.91833882 139.50990418 240.93640553 138.9206543 248.40380859 C136.92680549 254.07053677 133.44110751 257.75665721 128.44064331 261.02453041 C123.54215364 262.94396252 119.12996093 262.818432 113.91333008 262.78475952 C112.80171068 262.78943949 111.69009129 262.79411947 110.54478645 262.79894125 C106.81839203 262.81091119 103.09236399 262.80142587 99.3659668 262.79199219 C96.69503708 262.796057 94.02413265 262.8012898 91.35321045 262.80792236 C84.85083923 262.82125786 78.34857193 262.8183828 71.84619665 262.80968444 C66.56129447 262.80290757 61.2764214 262.80199119 55.99151611 262.80525589 C55.23916313 262.80571559 54.48681015 262.80617529 53.7116586 262.80664892 C52.18323818 262.8076081 50.65481777 262.80858074 49.12639737 262.80956669 C34.79648573 262.81812005 20.46663168 262.80828732 6.13672948 262.79216559 C-6.15732963 262.77876245 -18.45130375 262.78109056 -30.74536133 262.79492188 C-45.02421276 262.81097866 -59.30301374 262.81729608 -73.58187294 262.80808508 C-75.10465113 262.80712944 -76.62742932 262.80618633 -78.15020752 262.80525589 C-78.89943131 262.80479306 -79.64865511 262.80433024 -80.42058265 262.80385339 C-85.69875607 262.80126379 -90.97689746 262.80563384 -96.25506592 262.81269455 C-102.68795135 262.82111084 -109.12072697 262.81882675 -115.55359983 262.80285232 C-118.83538872 262.79497124 -122.11695684 262.79349164 -125.39875031 262.80179977 C-128.9566909 262.80997755 -132.514114 262.79973849 -136.07202148 262.78475952 C-137.62717374 262.79479777 -137.62717374 262.79479777 -139.21374321 262.80503881 C-146.10723484 262.74861129 -150.41442166 261.69688277 -155.7668457 257.09130859 C-160.38178475 251.72800105 -161.4217176 247.48858133 -161.6730957 240.57568359 C-160.04891335 231.89913049 -154.14226453 223.90967726 -149.7043457 216.40380859 C-148.45507049 214.27654335 -147.20639295 212.14892702 -145.95825195 210.02099609 C-145.31774902 208.93012695 -144.67724609 207.83925781 -144.01733398 206.71533203 C-140.86792357 201.3337998 -137.75415263 195.93185836 -134.6418457 190.52880859 C-133.70912842 188.91039062 -133.70912842 188.91039062 -132.75756836 187.25927734 C-131.49502048 185.06829923 -130.23265082 182.8772184 -128.97045898 180.68603516 C-125.84254422 175.25720917 -122.71076122 169.83061578 -119.5793457 164.40380859 C-118.32932691 162.23715277 -117.07932692 160.0704861 -115.8293457 157.90380859 C-98.3293457 127.57047526 -80.8293457 97.23714193 -63.3293457 66.90380859 C-62.71019287 65.8305835 -62.09104004 64.7573584 -61.453125 63.65161133 C-60.20728801 61.49221465 -58.96135752 59.3328719 -57.71533203 57.17358398 C-53.8730533 50.51480688 -50.03446928 43.85391567 -46.19824219 37.19165039 C-44.31321952 33.92175202 -42.42326825 30.6547452 -40.5324707 27.38818359 C-38.37549646 23.66034361 -36.23895356 19.92250499 -34.1262207 16.16943359 C-33.25648809 14.64335827 -32.38670091 13.11731404 -31.5168457 11.59130859 C-31.147771 10.92220459 -30.77869629 10.25310059 -30.3984375 9.5637207 C-27.41791113 4.37780827 -23.98765713 1.1003236 -18.8293457 -1.90869141 C-12.32157546 -3.53563397 -5.86282055 -3.51315418 0 0 Z M-12.0793457 17.40380859 C-12.49071777 18.12632813 -12.90208984 18.84884766 -13.32592773 19.59326172 C-20.52344428 32.22832542 -27.73108061 44.85559422 -35.0793457 57.40380859 C-40.13568377 66.0387674 -45.12541703 74.70987197 -50.0793457 83.40380859 C-55.61920503 93.12505365 -61.21309502 102.81275728 -66.86279297 112.47070312 C-73.01701312 122.99465484 -79.10304566 133.55760997 -85.18823242 144.12158203 C-88.31614719 149.55040802 -91.44793018 154.97700141 -94.5793457 160.40380859 C-95.82936449 162.57046442 -97.07936449 164.73713109 -98.3293457 166.90380859 C-100.8293457 171.23714193 -103.3293457 175.57047526 -105.8293457 179.90380859 C-106.44849854 180.97703369 -107.06765137 182.05025879 -107.70556641 183.15600586 C-108.9514034 185.31540254 -110.19733388 187.47474528 -111.44335938 189.6340332 C-114.63283523 195.16148456 -117.82051455 200.68995981 -121.00512695 206.22021484 C-122.30059236 208.4689747 -123.59616377 210.71767349 -124.8918457 212.96630859 C-125.51260986 214.04388428 -126.13337402 215.12145996 -126.77294922 216.23168945 C-130.89711144 223.38115439 -135.05757503 230.50803779 -139.28759766 237.59545898 C-141.22257561 240.32649796 -141.22257561 240.32649796 -142.0793457 243.40380859 C-55.6193457 243.40380859 30.8406543 243.40380859 119.9206543 243.40380859 C115.18252194 234.51981043 110.47063349 225.74389695 105.3581543 217.09130859 C104.13623087 215.00961139 102.91489724 212.92756789 101.6940918 210.84521484 C101.07244141 209.7857666 100.45079102 208.72631836 99.81030273 207.63476562 C96.67818787 202.27941574 93.58015085 196.90452088 90.4831543 191.52880859 C89.86110107 190.44946045 89.23904785 189.3701123 88.59814453 188.25805664 C87.33584805 186.06748124 86.07372259 183.87680728 84.81176758 181.68603516 C81.68385281 176.25720917 78.55206982 170.83061578 75.4206543 165.40380859 C74.17063551 163.23715277 72.92063551 161.0704861 71.6706543 158.90380859 C71.0519043 157.83130859 70.4331543 156.75880859 69.7956543 155.65380859 C34.1706543 93.90380859 34.1706543 93.90380859 32.29541016 90.65332031 C31.04629912 88.48823789 29.797113 86.32319877 28.54785156 84.15820312 C25.4086312 78.71765154 22.27074867 73.27633644 19.13549805 67.83349609 C12.28592638 55.94589002 5.41173471 44.07339692 -1.51318359 32.22949219 C-4.39385748 27.30160624 -7.25842319 22.36616134 -10.0793457 17.40380859 C-10.7393457 17.40380859 -11.3993457 17.40380859 -12.0793457 17.40380859 Z " fill="#030302" transform="translate(176.079345703125,22.59619140625)"/>
<path d="M0 0 C6.65294725 4.86264735 10.48296846 13.59110279 14.40969849 20.59967041 C16.1613139 23.7255798 17.93144685 26.84101174 19.69799805 29.95849609 C20.23329384 30.90509598 20.23329384 30.90509598 20.77940369 31.87081909 C24.12809692 37.78765687 27.54629438 43.6627751 30.9831543 49.52880859 C37.7135984 61.0320275 44.3772156 72.57304908 51.02954102 84.12158203 C54.15745578 89.55040802 57.28923878 94.97700141 60.4206543 100.40380859 C61.67067309 102.57046442 62.92067308 104.73713109 64.1706543 106.90380859 C65.0987793 108.51255859 65.0987793 108.51255859 66.0456543 110.15380859 C101.6706543 171.90380859 101.6706543 171.90380859 103.546875 175.15600586 C104.79271199 177.31540254 106.03864248 179.47474528 107.28466797 181.6340332 C110.47414383 187.16148456 113.66182315 192.68995981 116.84643555 198.22021484 C118.14191942 200.46896406 119.43749111 202.71766269 120.7331543 204.96630859 C121.35464355 206.04533447 121.97613281 207.12436035 122.61645508 208.23608398 C126.70672067 215.32780413 130.83304307 222.39704092 135.04101562 229.41967773 C138.90556172 235.91833882 139.50990418 240.93640553 138.9206543 248.40380859 C136.92680549 254.07053677 133.44110751 257.75665721 128.44064331 261.02453041 C123.54215364 262.94396252 119.12996093 262.818432 113.91333008 262.78475952 C112.80171068 262.78943949 111.69009129 262.79411947 110.54478645 262.79894125 C106.81839203 262.81091119 103.09236399 262.80142587 99.3659668 262.79199219 C96.69503708 262.796057 94.02413265 262.8012898 91.35321045 262.80792236 C84.85083923 262.82125786 78.34857193 262.8183828 71.84619665 262.80968444 C66.56129447 262.80290757 61.2764214 262.80199119 55.99151611 262.80525589 C55.23916313 262.80571559 54.48681015 262.80617529 53.7116586 262.80664892 C52.18323818 262.8076081 50.65481777 262.80858074 49.12639737 262.80956669 C34.79648573 262.81812005 20.46663168 262.80828732 6.13672948 262.79216559 C-6.15732963 262.77876245 -18.45130375 262.78109056 -30.74536133 262.79492188 C-45.02421276 262.81097866 -59.30301374 262.81729608 -73.58187294 262.80808508 C-75.10465113 262.80712944 -76.62742932 262.80618633 -78.15020752 262.80525589 C-78.89943131 262.80479306 -79.64865511 262.80433024 -80.42058265 262.80385339 C-85.69875607 262.80126379 -90.97689746 262.80563384 -96.25506592 262.81269455 C-102.68795135 262.82111084 -109.12072697 262.81882675 -115.55359983 262.80285232 C-118.83538872 262.79497124 -122.11695684 262.79349164 -125.39875031 262.80179977 C-128.9566909 262.80997755 -132.514114 262.79973849 -136.07202148 262.78475952 C-137.62717374 262.79479777 -137.62717374 262.79479777 -139.21374321 262.80503881 C-146.10723484 262.74861129 -150.41442166 261.69688277 -155.7668457 257.09130859 C-160.38178475 251.72800105 -161.4217176 247.48858133 -161.6730957 240.57568359 C-160.04891335 231.89913049 -154.14226453 223.90967726 -149.7043457 216.40380859 C-148.45507049 214.27654335 -147.20639295 212.14892702 -145.95825195 210.02099609 C-145.31774902 208.93012695 -144.67724609 207.83925781 -144.01733398 206.71533203 C-140.86792357 201.3337998 -137.75415263 195.93185836 -134.6418457 190.52880859 C-133.70912842 188.91039062 -133.70912842 188.91039062 -132.75756836 187.25927734 C-131.49502048 185.06829923 -130.23265082 182.8772184 -128.97045898 180.68603516 C-125.84254422 175.25720917 -122.71076122 169.83061578 -119.5793457 164.40380859 C-118.32932691 162.23715277 -117.07932692 160.0704861 -115.8293457 157.90380859 C-98.3293457 127.57047526 -80.8293457 97.23714193 -63.3293457 66.90380859 C-62.71019287 65.8305835 -62.09104004 64.7573584 -61.453125 63.65161133 C-60.20728801 61.49221465 -58.96135752 59.3328719 -57.71533203 57.17358398 C-53.8730533 50.51480688 -50.03446928 43.85391567 -46.19824219 37.19165039 C-44.31321952 33.92175202 -42.42326825 30.6547452 -40.5324707 27.38818359 C-38.37549646 23.66034361 -36.23895356 19.92250499 -34.1262207 16.16943359 C-33.25648809 14.64335827 -32.38670091 13.11731404 -31.5168457 11.59130859 C-31.147771 10.92220459 -30.77869629 10.25310059 -30.3984375 9.5637207 C-27.41791113 4.37780827 -23.98765713 1.1003236 -18.8293457 -1.90869141 C-12.32157546 -3.53563397 -5.86282055 -3.51315418 0 0 Z M-23.3605957 14.98583984 C-24.11165967 16.38991501 -24.8505335 17.80055546 -25.5793457 19.21630859 C-26.44905725 20.84144589 -27.3216052 22.46506748 -28.1965332 24.08740234 C-28.66027344 24.95091309 -29.12401367 25.81442383 -29.60180664 26.70410156 C-32.20159758 31.45434747 -34.95888122 36.11175008 -37.7043457 40.77880859 C-42.88881253 49.62043019 -48.00623201 58.49803865 -53.0793457 67.40380859 C-58.61886409 77.12524565 -64.21309765 86.81276177 -69.86279297 96.47070312 C-76.01701312 106.99465484 -82.10304566 117.55760997 -88.18823242 128.12158203 C-91.31614719 133.55040802 -94.44793018 138.97700141 -97.5793457 144.40380859 C-98.82936449 146.57046442 -100.07936449 148.73713109 -101.3293457 150.90380859 C-108.8293457 163.90380859 -116.3293457 176.90380859 -123.8293457 189.90380859 C-124.44914307 190.97816162 -125.06894043 192.05251465 -125.70751953 193.15942383 C-126.94680837 195.30744905 -128.18622711 197.45539934 -129.42578125 199.60327148 C-132.36137138 204.69036409 -135.29560242 209.77822706 -138.22525024 214.8687439 C-139.61262665 217.27924607 -141.00074194 219.68932236 -142.38891602 222.09936523 C-143.37108385 223.80524827 -144.35217955 225.51174845 -145.33325195 227.21826172 C-145.9262207 228.24757812 -146.51918945 229.27689453 -147.13012695 230.33740234 C-147.6526001 231.24546631 -148.17507324 232.15353027 -148.71337891 233.08911133 C-149.77912536 234.8950706 -150.91615323 236.65901988 -152.0793457 238.40380859 C-152.81899596 242.99652063 -152.68895765 246.42842948 -150.2043457 250.40380859 C-147.20327781 253.22834308 -145.64071802 253.52924765 -141.63052654 253.53802967 C-140.68911113 253.54248751 -139.74769573 253.54694536 -138.77775258 253.55153829 C-137.73643282 253.55135393 -136.69511306 253.55116956 -135.62223816 253.55097961 C-134.521498 253.5546563 -133.42075784 253.55833299 -132.28666192 253.56212109 C-128.57326478 253.57319381 -124.85989558 253.57700782 -121.14648438 253.58081055 C-118.49423555 253.58707242 -115.84198976 253.59370583 -113.18974304 253.60072327 C-105.21273545 253.62049759 -97.23572656 253.63055488 -89.25870058 253.63945106 C-85.5041802 253.64383217 -81.74966124 253.64919941 -77.99514198 253.65443993 C-65.51785036 253.67145278 -53.04055962 253.68594779 -40.56325817 253.69318867 C-37.32439867 253.69509863 -34.08553917 253.69701895 -30.84667969 253.69897461 C-30.04165625 253.69945835 -29.23663282 253.69994209 -28.40721474 253.70044049 C-15.36122546 253.70874392 -2.31532777 253.73408582 10.73062149 253.76655529 C24.11796772 253.79960342 37.50526736 253.81763537 50.8926546 253.82083291 C58.41190595 253.82300004 65.93102371 253.83177829 73.45023537 253.85729408 C79.85287389 253.87897043 86.25534638 253.8870667 92.65801743 253.8773273 C95.92555479 253.87277363 99.19267676 253.87689927 102.46018219 253.89408875 C106.00127921 253.91167898 109.54149952 253.90476423 113.08259583 253.89155579 C114.11722342 253.90252503 115.15185101 253.91349428 116.21783096 253.92479593 C120.6469982 253.8847573 123.19414158 253.84824276 127.03553295 251.49832439 C130.04585644 248.15362187 130.39125761 245.5255244 130.32739258 241.01269531 C129.52760425 235.88272049 126.58344706 231.79638796 123.8581543 227.46630859 C122.56277275 225.33026303 121.26854048 223.19352016 119.9753418 221.05615234 C118.96745605 219.41042236 118.96745605 219.41042236 117.93920898 217.73144531 C114.69510652 212.38346314 111.59283743 206.95567148 108.4831543 201.52880859 C107.22452763 199.34363166 105.96541047 197.15873717 104.70581055 194.97412109 C104.08077637 193.88905273 103.45574219 192.80398437 102.81176758 191.68603516 C99.68385281 186.25720917 96.55206982 180.83061578 93.4206543 175.40380859 C92.17063551 173.23715277 90.92063551 171.0704861 89.6706543 168.90380859 C89.0519043 167.83130859 88.4331543 166.75880859 87.7956543 165.65380859 C37.1706543 77.90380859 37.1706543 77.90380859 35.29516602 74.65283203 C34.04694395 72.48933383 32.7985719 70.32592216 31.55004883 68.16259766 C28.39660174 62.69815842 25.24589334 57.23217214 22.1003418 51.76318359 C18.99053576 46.35741946 15.87053981 40.95764211 12.74487305 35.56103516 C11.51952499 33.44029091 10.29822615 31.31720234 9.08081055 29.19189453 C7.32811974 26.13222407 5.56318598 23.0799231 3.7956543 20.02880859 C3.01520752 18.65547363 3.01520752 18.65547363 2.21899414 17.25439453 C-0.36950554 12.81527413 -2.56488232 9.12434728 -7.0793457 6.40380859 C-14.93955358 5.28092175 -19.39427183 8.17868646 -23.3605957 14.98583984 Z " fill="#040404" transform="translate(176.079345703125,22.59619140625)"/>
<path d="M0 0 C5.96758798 2.41242918 9.05511145 7.84563284 12.14453125 13.26171875 C12.73105469 14.28458984 13.31757813 15.30746094 13.921875 16.36132812 C14.54578125 17.45896484 15.1696875 18.55660156 15.8125 19.6875 C16.47741412 20.84986717 17.14278737 22.01197181 17.80859375 23.17382812 C19.1900913 25.5854146 20.56961565 27.99811344 21.94775391 30.41162109 C25.11338555 35.95170955 28.30823887 41.47493981 31.5 47 C32.75013641 49.16658796 34.000136 51.33325488 35.25 53.5 C35.86875 54.5725 36.4875 55.645 37.125 56.75 C102.75000001 170.50000001 102.75000001 170.50000001 104.62597656 173.75170898 C105.87270256 175.91268988 107.11944727 178.07365998 108.36621094 180.23461914 C111.54145883 185.73818851 114.71635495 191.24196032 117.890625 196.74609375 C118.5312085 197.855896 119.17179199 198.96569824 119.83178711 200.10913086 C121.09869537 202.30739487 122.36259083 204.50739831 123.62329102 206.70922852 C126.47281126 211.6772045 129.35435844 216.60984901 132.38671875 221.46875 C141.56543087 236.30455754 141.56543087 236.30455754 140.62109375 243.8359375 C139.43561555 247.96647161 137.98204325 250.63348837 134.39414454 253.1071505 C128.57063202 256.30312864 123.51163578 256.56815027 116.95544434 256.5146637 C115.86394498 256.52160922 114.77244563 256.52855475 113.64787054 256.53571075 C110.00136549 256.55396333 106.35551227 256.54372077 102.70898438 256.53344727 C100.09027114 256.54050652 97.47156198 256.54925156 94.8528595 256.55955505 C88.4850959 256.58116072 82.11751126 256.58107715 75.74972308 256.57292951 C70.57309599 256.56662177 65.39652096 256.56777361 60.21989441 256.57420158 C59.48226666 256.57510324 58.74463891 256.57600489 57.98465881 256.57693387 C56.48603792 256.57878513 54.98741704 256.58064769 53.48879617 256.58252143 C39.44636838 256.59908768 25.40404115 256.59039045 11.36161941 256.57353585 C-1.4783103 256.55883721 -14.31800605 256.57347159 -27.15790564 256.60230602 C-40.35224786 256.63171508 -53.54648214 256.64266808 -66.74085569 256.63312382 C-68.23386858 256.63210129 -69.72688149 256.63110668 -71.21989441 256.6301403 C-72.32169217 256.62942572 -72.32169217 256.62942572 -73.44574848 256.6286967 C-78.61433079 256.6265347 -83.78281064 256.63632507 -88.95137024 256.65091133 C-95.91183373 256.67028115 -102.87185519 256.66332935 -109.83230019 256.63871193 C-112.38646031 256.63369911 -114.94065352 256.63720585 -117.49478722 256.64986038 C-120.98217451 256.66577173 -124.46812495 256.65085552 -127.95544434 256.62818909 C-128.96556784 256.64002482 -129.97569135 256.65186054 -131.01642466 256.66405493 C-137.59381061 256.57723325 -141.88603678 255.20140587 -147 251 C-150.55282126 247.22512742 -150.52709315 243.12948558 -150.46923828 238.15722656 C-149.56048581 232.04276926 -146.13463274 227.11614346 -142.9375 221.9375 C-142.20402471 220.70929706 -141.47302916 219.47961022 -140.74438477 218.24853516 C-139.24536555 215.7216715 -137.73489766 213.20225126 -136.21484375 210.68798828 C-132.86668951 205.13525742 -129.66075498 199.50078765 -126.4375 193.875 C-125.19753967 191.72602846 -123.95665371 189.57759074 -122.71484375 187.4296875 C-118.97348344 180.95489978 -115.23642517 174.47763657 -111.5 168 C-110.25001878 165.8333225 -109.00001879 163.66665583 -107.75 161.5 C-107.13125 160.4275 -106.5125 159.355 -105.875 158.25 C-104 155 -102.125 151.75 -100.25 148.5 C-99.63116943 147.42733887 -99.01233887 146.35467773 -98.37475586 145.24951172 C-97.12564482 143.08442929 -95.87645871 140.91939018 -94.62719727 138.75439453 C-91.48797691 133.31384294 -88.35009437 127.87252784 -85.21484375 122.4296875 C-79.19252671 111.97793801 -73.15330663 101.53700452 -67.0625 91.125 C-61.98724631 82.44737338 -56.97769668 73.73378487 -52 65 C-45.86066347 54.23019064 -39.67160462 43.49108402 -33.39453125 32.80078125 C-31.05296885 28.81288184 -28.74260487 24.80875521 -26.44921875 20.79296875 C-25.29956688 18.79942858 -24.14983046 16.80593717 -23 14.8125 C-22.4841333 13.89742676 -21.9682666 12.98235352 -21.43676758 12.03955078 C-15.96291143 2.61071992 -11.34317757 -1.57833205 0 0 Z M-17.28125 12.58203125 C-18.03231397 13.98610642 -18.77118779 15.39674687 -19.5 16.8125 C-20.36971155 18.4376373 -21.24225949 20.06125889 -22.1171875 21.68359375 C-22.58092773 22.54710449 -23.04466797 23.41061523 -23.52246094 24.30029297 C-26.12225188 29.05053888 -28.87953552 33.70794148 -31.625 38.375 C-36.80946682 47.21662159 -41.92688631 56.09423005 -47 65 C-52.53951839 74.72143706 -58.13375194 84.40895317 -63.78344727 94.06689453 C-69.93766742 104.59084625 -76.02369996 115.15380137 -82.10888672 125.71777344 C-85.23680148 131.14659942 -88.36858448 136.57319281 -91.5 142 C-92.75001879 144.16665583 -94.00001878 146.3333225 -95.25 148.5 C-102.75 161.5 -110.25 174.5 -117.75 187.5 C-118.36979736 188.57435303 -118.98959473 189.64870605 -119.62817383 190.75561523 C-120.86746267 192.90364046 -122.10688141 195.05159075 -123.34643555 197.19946289 C-126.28202567 202.28655549 -129.21625672 207.37441847 -132.14590454 212.4649353 C-133.53328095 214.87543748 -134.92139624 217.28551376 -136.30957031 219.69555664 C-137.29173815 221.40143968 -138.27283385 223.10793986 -139.25390625 224.81445312 C-139.846875 225.84376953 -140.43984375 226.87308594 -141.05078125 227.93359375 C-141.57325439 228.84165771 -142.09572754 229.74972168 -142.6340332 230.68530273 C-143.69977966 232.49126201 -144.83680752 234.25521129 -146 236 C-146.73965025 240.59271203 -146.60961194 244.02462089 -144.125 248 C-141.12393211 250.82453448 -139.56137232 251.12543905 -135.55118084 251.13422108 C-134.60976543 251.13867892 -133.66835002 251.14313676 -132.69840688 251.14772969 C-131.65708712 251.14754533 -130.61576736 251.14736097 -129.54289246 251.14717102 C-128.4421523 251.15084771 -127.34141214 251.1545244 -126.20731622 251.1583125 C-122.49391908 251.16938521 -118.78054988 251.17319923 -115.06713867 251.17700195 C-112.41488985 251.18326382 -109.76264405 251.18989724 -107.11039734 251.19691467 C-99.13338974 251.216689 -91.15638086 251.22674628 -83.17935488 251.23564246 C-79.4248345 251.24002357 -75.67031554 251.24539082 -71.91579628 251.25063133 C-59.43850465 251.26764419 -46.96121391 251.2821392 -34.48391247 251.28938007 C-31.24505296 251.29129003 -28.00619346 251.29321036 -24.76733398 251.29516602 C-23.96231055 251.29564976 -23.15728712 251.2961335 -22.32786904 251.2966319 C-9.28187975 251.30493532 3.76401793 251.33027723 16.8099672 251.36274669 C30.19731342 251.39579482 43.58461306 251.41382677 56.9720003 251.41702431 C64.49125165 251.41919145 72.01036941 251.4279697 79.52958107 251.45348549 C85.93221959 251.47516184 92.33469208 251.48325811 98.73736314 251.47351871 C102.00490049 251.46896503 105.27202246 251.47309067 108.53952789 251.49028015 C112.08062492 251.50787039 115.62084522 251.50095564 119.16194153 251.48774719 C120.19656912 251.49871644 121.23119671 251.50968568 122.29717666 251.52098733 C126.7263439 251.48094871 129.27348728 251.44443417 133.11487865 249.0945158 C136.12520214 245.74981328 136.47060331 243.1217158 136.40673828 238.60888672 C135.60694996 233.4789119 132.66279276 229.39257936 129.9375 225.0625 C128.64211845 222.92645444 127.34788618 220.78971157 126.0546875 218.65234375 C125.04680176 217.00661377 125.04680176 217.00661377 124.01855469 215.32763672 C120.77445222 209.97965454 117.67218314 204.55186289 114.5625 199.125 C113.30387333 196.93982306 112.04475617 194.75492857 110.78515625 192.5703125 C110.16012207 191.48524414 109.53508789 190.40017578 108.89111328 189.28222656 C105.76319852 183.85340058 102.63141552 178.42680719 99.5 173 C98.24998121 170.83334417 96.99998122 168.6666775 95.75 166.5 C95.13125 165.4275 94.5125 164.355 93.875 163.25 C43.25 75.5 43.25 75.5 41.37451172 72.24902344 C40.12628966 70.08552524 38.87791761 67.92211357 37.62939453 65.75878906 C34.47594744 60.29434983 31.32523904 54.82836355 28.1796875 49.359375 C25.06988146 43.95361086 21.94988551 38.55383351 18.82421875 33.15722656 C17.5988707 31.03648231 16.37757185 28.91339375 15.16015625 26.78808594 C13.40746544 23.72841548 11.64253168 20.67611451 9.875 17.625 C9.09455322 16.25166504 9.09455322 16.25166504 8.29833984 14.85058594 C5.70984016 10.41146553 3.51446338 6.72053869 -1 4 C-8.86020788 2.87711316 -13.31492612 5.77487787 -17.28125 12.58203125 Z " fill="#E6E6E6" transform="translate(170,25)"/>
<path d="M0 0 C5.81622097 2.40192061 10.16945307 6.33890614 13 12 C13.10603698 14.53310682 13.14955939 17.03066265 13.13574219 19.5637207 C13.13310741 20.32334012 13.13047264 21.08295954 13.12775803 21.86559772 C13.05635592 29.93411082 12.49132044 37.9423318 11.828125 45.98046875 C11.70308748 47.53362753 11.57815069 49.08679441 11.45330811 50.63996887 C11.19277348 53.8562105 10.92628203 57.07189622 10.65625 60.28735352 C10.31241136 64.39576334 9.99136356 68.50563009 9.67543411 72.6162672 C9.42636422 75.80778941 9.16165212 78.99787483 8.89260101 82.18776894 C8.76733725 83.70348699 8.64773606 85.21968478 8.53409576 86.73631859 C8.3741534 88.84964147 8.19221161 90.95999713 8.00488281 93.07104492 C7.9071759 94.26775314 7.80946899 95.46446136 7.70880127 96.69743347 C6.67069526 101.53435224 4.49444022 104.82017877 0.625 107.875 C-2.60164126 109.25784626 -4.51686382 109.49759088 -8 109 C-12.43860825 106.65014857 -14.78264823 104.46937304 -17 100 C-17.58854675 96.81768799 -17.58854675 96.81768799 -17.89135742 93.18457031 C-17.97979668 92.18568031 -17.97979668 92.18568031 -18.07002258 91.16661072 C-18.26105264 88.97131199 -18.43361071 86.77500126 -18.60546875 84.578125 C-18.73478814 83.03408249 -18.86503806 81.49011766 -18.99617004 79.94622803 C-19.26868899 76.70547356 -19.53253783 73.46416894 -19.78979492 70.22216797 C-20.1158868 66.11655332 -20.4590841 62.01260993 -20.80852795 57.9089241 C-21.07927994 54.71412383 -21.34262324 51.5187453 -21.60372353 48.32314301 C-21.72756462 46.8131152 -21.85309652 45.30322488 -21.98052025 43.79349518 C-22.64860836 35.80949528 -23.15150487 27.82269423 -23.32543945 19.81152344 C-23.35441661 19.11659916 -23.38339376 18.42167488 -23.41324902 17.70569229 C-23.46332762 12.65197004 -22.13791205 9.89670576 -19 6 C-13.01315526 0.61183974 -8.01669049 -1.17963313 0 0 Z " fill="#020100" transform="translate(170,95)"/>
<path d="M0 0 C3.94277881 2.34127896 6.85840803 6.05275357 8.89453125 10.125 C9.3963169 16.57101568 9.85682399 22.70986659 5.89453125 28.125 C1.51951244 32.50001881 -2.64629728 35.40123352 -8.91796875 35.5 C-14.76653358 35.36238671 -18.38037016 33.83594223 -22.609375 29.62890625 C-27.17663235 24.41104243 -27.57664412 19.91869158 -27.51171875 13.20703125 C-26.76493642 7.54153838 -23.7265329 4.27561674 -19.4296875 0.75 C-13.2151565 -3.36444811 -6.57517519 -2.69750777 0 0 Z " fill="#030300" transform="translate(174.10546875,220.875)"/>
</svg>
