<svg width="106" height="106" viewBox="0 0 106 106" fill="none" xmlns="http://www.w3.org/2000/svg">
<path d="M14.1111 103H91.8889C98.0254 103 103 98.0254 103 91.8889V14.1111C103 7.97461 98.0254 3 91.8889 3H14.1111C7.97461 3 3 7.97461 3 14.1111V91.8889C3 98.0254 7.97461 103 14.1111 103ZM14.1111 103L75.2222 41.8889L103 69.6667M41.8889 33.5556C41.8889 38.1579 38.1579 41.8889 33.5556 41.8889C28.9532 41.8889 25.2222 38.1579 25.2222 33.5556C25.2222 28.9532 28.9532 25.2222 33.5556 25.2222C38.1579 25.2222 41.8889 28.9532 41.8889 33.5556Z" stroke="#8E8E93" stroke-width="6" stroke-linecap="round" stroke-linejoin="round"/>
</svg>
